<?xml version="1.0" standalone="no"?>
<!DOCTYPE svg PUBLIC "-//W3C//DTD SVG 20010904//EN"
 "http://www.w3.org/TR/2001/REC-SVG-20010904/DTD/svg10.dtd">
<svg version="1.0" xmlns="http://www.w3.org/2000/svg"
 width="96.000000pt" height="96.000000pt" viewBox="0 0 96.000000 96.000000"
 preserveAspectRatio="xMidYMid meet">
<metadata>
Created by potrace 1.11, written by Peter Selinger 2001-2013
</metadata>
<g transform="translate(0.000000,96.000000) scale(0.100000,-0.100000)"
fill="#000000" stroke="none">
<path d="M444 860 c-11 -4 -26 -15 -33 -24 -7 -9 -19 -16 -26 -16 -20 0 -38
-28 -30 -47 7 -17 7 -54 0 -61 -2 -2 -25 4 -52 14 -79 28 -107 5 -77 -62 10
-22 19 -42 21 -45 2 -4 -11 -9 -29 -13 -46 -9 -166 -68 -173 -85 -6 -15 11
-41 27 -41 6 0 22 -9 37 -19 14 -11 52 -26 83 -35 l56 -17 -21 -50 c-21 -50
-21 -51 -3 -65 21 -15 52 -11 99 13 25 12 28 12 33 -4 15 -44 56 -123 65 -123
5 0 9 -6 9 -14 0 -21 27 -38 50 -31 11 3 20 11 20 16 0 6 11 25 25 43 14 18
32 54 41 79 l15 45 37 -14 c20 -8 47 -20 58 -26 26 -12 64 -2 64 17 0 8 -13
36 -29 63 l-29 49 61 19 c109 33 148 91 89 133 -15 11 -55 28 -89 37 l-61 18
31 59 c28 54 29 59 14 75 -16 15 -21 14 -80 -15 l-64 -31 -18 50 c-30 84 -75
124 -121 108z m66 -37 c26 -33 50 -88 50 -114 0 -15 -76 -79 -94 -79 -10 0
-96 64 -96 71 0 22 21 59 34 59 17 0 27 24 19 46 -7 19 21 44 48 44 10 0 27
-12 39 -27z m-195 -120 c31 -15 35 -21 30 -43 -13 -51 -66 -56 -95 -7 -40 65
-12 87 65 50z m365 -3 c20 -20 20 -22 3 -51 -15 -25 -23 -29 -53 -27 -31 3
-35 6 -38 35 -3 26 2 34 25 47 37 20 39 20 63 -4z m-275 -50 l30 -20 -37 0
c-31 0 -38 4 -38 20 0 25 7 25 45 0z m169 4 c9 -24 9 -24 -31 -24 l-38 1 24
19 c28 24 37 25 45 4z m-134 -49 c-7 -9 -30 -29 -52 -46 l-38 -31 0 41 c0 37
2 40 33 44 70 8 71 8 57 -8z m138 0 c2 -2 2 -19 0 -38 l-3 -35 -50 45 -50 44
50 -7 c28 -3 51 -8 53 -9z m-239 -7 c0 -7 -4 -22 -8 -32 -7 -18 -8 -18 -24 5
-23 32 -21 39 8 39 14 0 25 -6 24 -12z m311 4 c0 -5 -11 -19 -25 -32 l-25 -23
0 31 c0 27 4 32 25 32 14 0 25 -4 25 -8z m-352 -42 c17 -21 32 -42 32 -47 0
-5 -14 -26 -32 -47 -28 -35 -35 -38 -69 -33 -54 7 -131 46 -122 60 5 7 8 23 8
37 0 22 8 28 65 47 36 12 70 22 75 22 6 1 25 -17 43 -39z m226 -3 l48 -42 -51
-48 -52 -48 -38 30 c-71 56 -71 58 -19 107 26 24 50 44 55 44 4 0 30 -20 57
-43z m263 7 c55 -26 71 -48 51 -71 -17 -20 -65 -44 -120 -59 l-47 -12 -37 44
-36 45 36 44 c33 40 40 44 69 39 18 -3 55 -17 84 -30z m-338 -151 c2 -2 -19
-3 -47 -3 l-52 0 0 47 0 47 47 -44 c26 -25 50 -46 52 -47z m131 37 l0 -40 -47
0 -48 1 45 39 c25 22 46 40 48 40 1 0 2 -18 2 -40z m48 -1 l23 -26 -25 -5
c-24 -5 -26 -2 -26 30 0 19 1 33 3 31 1 -2 12 -16 25 -30z m-289 -27 c1 -9 -6
-11 -21 -6 -33 9 -33 12 -12 35 17 19 19 19 25 2 4 -10 8 -24 8 -31z m-3 -26
c1 -1 5 -15 8 -32 7 -30 5 -32 -34 -48 -80 -32 -97 -18 -60 54 19 37 23 39 53
33 17 -3 33 -6 33 -7z m349 -26 c14 -28 14 -31 -5 -50 -19 -19 -21 -19 -55 -3
-29 14 -35 22 -35 49 0 30 3 33 33 36 41 4 44 3 62 -32z m-286 -1 c-32 -24
-39 -24 -39 4 0 21 4 23 31 19 l32 -5 -24 -18z m117 -6 c52 -33 54 -49 19
-119 -24 -49 -26 -50 -67 -49 -39 1 -45 4 -65 40 -41 75 -40 89 9 123 24 17
47 31 52 32 5 0 28 -12 52 -27z m57 7 c-5 -20 -11 -19 -53 10 -11 7 -6 10 22
10 31 0 35 -3 31 -20z"/>
<path d="M450 535 c-29 -35 20 -74 56 -45 18 16 18 25 -2 44 -19 20 -38 20
-54 1z"/>
<path d="M898 506 l3 -332 -23 -34 c-46 -68 -55 -70 -416 -70 -278 0 -327 2
-355 16 l-32 16 30 -31 c16 -17 46 -36 68 -42 23 -6 156 -9 350 -7 354 3 359
5 397 83 19 38 20 63 20 348 0 241 -3 315 -14 341 -8 19 -18 36 -22 39 -5 3
-8 -144 -6 -327z"/>
</g>
</svg>
